<mxfile host="app.diagrams.net" modified="2022-12-15T06:21:27.980Z" agent="5.0 (Windows NT 10.0; Win64; x64) AppleWebKit/537.36 (KHTML, like Gecko) Chrome/108.0.0.0 Safari/537.36" etag="fsZvyS9zHGQkzEYWI3Ku" version="20.6.0" type="github">
  <diagram id="C5RBs43oDa-KdzZeNtuy" name="Page-1">
    <mxGraphModel dx="1385" dy="635" grid="1" gridSize="10" guides="1" tooltips="1" connect="1" arrows="1" fold="1" page="1" pageScale="1" pageWidth="827" pageHeight="1169" math="0" shadow="0">
      <root>
        <mxCell id="WIyWlLk6GJQsqaUBKTNV-0" />
        <mxCell id="WIyWlLk6GJQsqaUBKTNV-1" parent="WIyWlLk6GJQsqaUBKTNV-0" />
        <mxCell id="WIyWlLk6GJQsqaUBKTNV-2" value="" style="rounded=0;html=1;jettySize=auto;orthogonalLoop=1;fontSize=11;endArrow=block;endFill=0;endSize=8;strokeWidth=1;shadow=0;labelBackgroundColor=none;edgeStyle=orthogonalEdgeStyle;" parent="WIyWlLk6GJQsqaUBKTNV-1" source="WIyWlLk6GJQsqaUBKTNV-3" target="WIyWlLk6GJQsqaUBKTNV-6" edge="1">
          <mxGeometry relative="1" as="geometry" />
        </mxCell>
        <mxCell id="WIyWlLk6GJQsqaUBKTNV-3" value="카카오 노출 API 호출&lt;br&gt;(RTBViewNonCookieService.java)" style="rounded=1;whiteSpace=wrap;html=1;fontSize=12;glass=0;strokeWidth=1;shadow=0;" parent="WIyWlLk6GJQsqaUBKTNV-1" vertex="1">
          <mxGeometry x="160" y="50" width="230" height="70" as="geometry" />
        </mxCell>
        <mxCell id="WIyWlLk6GJQsqaUBKTNV-4" value="Yes" style="rounded=0;html=1;jettySize=auto;orthogonalLoop=1;fontSize=11;endArrow=block;endFill=0;endSize=8;strokeWidth=1;shadow=0;labelBackgroundColor=none;edgeStyle=orthogonalEdgeStyle;entryX=0.5;entryY=0;entryDx=0;entryDy=0;" parent="WIyWlLk6GJQsqaUBKTNV-1" source="WIyWlLk6GJQsqaUBKTNV-6" target="Dg-iGA9xPcULfQSp999H-1" edge="1">
          <mxGeometry y="20" relative="1" as="geometry">
            <mxPoint as="offset" />
            <mxPoint x="275.02857142857147" y="320.0228571428572" as="targetPoint" />
          </mxGeometry>
        </mxCell>
        <mxCell id="WIyWlLk6GJQsqaUBKTNV-5" value="No" style="edgeStyle=orthogonalEdgeStyle;rounded=0;html=1;jettySize=auto;orthogonalLoop=1;fontSize=11;endArrow=block;endFill=0;endSize=8;strokeWidth=1;shadow=0;labelBackgroundColor=none;" parent="WIyWlLk6GJQsqaUBKTNV-1" source="WIyWlLk6GJQsqaUBKTNV-6" target="WIyWlLk6GJQsqaUBKTNV-7" edge="1">
          <mxGeometry y="10" relative="1" as="geometry">
            <mxPoint as="offset" />
          </mxGeometry>
        </mxCell>
        <mxCell id="WIyWlLk6GJQsqaUBKTNV-6" value="request.getCookie(&quot;au_id&quot;)&lt;br&gt;존재?" style="rhombus;whiteSpace=wrap;html=1;shadow=0;fontFamily=Helvetica;fontSize=12;align=center;strokeWidth=1;spacing=6;spacingTop=-4;" parent="WIyWlLk6GJQsqaUBKTNV-1" vertex="1">
          <mxGeometry x="182.5" y="170" width="185" height="130" as="geometry" />
        </mxCell>
        <mxCell id="WIyWlLk6GJQsqaUBKTNV-7" value="쿠키매칭 AUID 조회&lt;br&gt;request.getParameter(&quot;auid&quot;)" style="rounded=1;whiteSpace=wrap;html=1;fontSize=12;glass=0;strokeWidth=1;shadow=0;" parent="WIyWlLk6GJQsqaUBKTNV-1" vertex="1">
          <mxGeometry x="430" y="215" width="180" height="40" as="geometry" />
        </mxCell>
        <mxCell id="WIyWlLk6GJQsqaUBKTNV-8" value="" style="rounded=0;html=1;jettySize=auto;orthogonalLoop=1;fontSize=11;endArrow=block;endFill=0;endSize=8;strokeWidth=1;shadow=0;labelBackgroundColor=none;edgeStyle=orthogonalEdgeStyle;exitX=0.5;exitY=1;exitDx=0;exitDy=0;entryX=0.5;entryY=0;entryDx=0;entryDy=0;" parent="WIyWlLk6GJQsqaUBKTNV-1" source="Dg-iGA9xPcULfQSp999H-1" target="Dg-iGA9xPcULfQSp999H-2" edge="1">
          <mxGeometry x="0.3333" y="20" relative="1" as="geometry">
            <mxPoint as="offset" />
            <mxPoint x="275.02857142857147" y="399.9771428571428" as="sourcePoint" />
            <mxPoint x="275" y="430" as="targetPoint" />
          </mxGeometry>
        </mxCell>
        <mxCell id="Dg-iGA9xPcULfQSp999H-1" value="Cookie AUID로&lt;br&gt;Mongo 모수 조회&lt;br&gt;( Inclination.load )" style="rounded=1;whiteSpace=wrap;html=1;fontSize=12;glass=0;strokeWidth=1;shadow=0;" vertex="1" parent="WIyWlLk6GJQsqaUBKTNV-1">
          <mxGeometry x="215" y="335" width="120" height="55" as="geometry" />
        </mxCell>
        <mxCell id="Dg-iGA9xPcULfQSp999H-2" value="카카오 송출 중인 타겟팅&lt;br&gt;모수 존재 확인&lt;br&gt;( 모수 존재 일치 여부 확인 안함 )" style="rhombus;whiteSpace=wrap;html=1;shadow=0;fontFamily=Helvetica;fontSize=12;align=center;strokeWidth=1;spacing=6;spacingTop=-4;" vertex="1" parent="WIyWlLk6GJQsqaUBKTNV-1">
          <mxGeometry x="176.5" y="425" width="197.5" height="150" as="geometry" />
        </mxCell>
        <mxCell id="Dg-iGA9xPcULfQSp999H-3" value="Frequency 처리" style="rounded=1;whiteSpace=wrap;html=1;fontSize=12;glass=0;strokeWidth=1;shadow=0;" vertex="1" parent="WIyWlLk6GJQsqaUBKTNV-1">
          <mxGeometry x="215" y="608" width="120" height="40" as="geometry" />
        </mxCell>
        <mxCell id="Dg-iGA9xPcULfQSp999H-4" value="Yes" style="rounded=0;html=1;jettySize=auto;orthogonalLoop=1;fontSize=11;endArrow=block;endFill=0;endSize=8;strokeWidth=1;shadow=0;labelBackgroundColor=none;edgeStyle=orthogonalEdgeStyle;exitX=0.5;exitY=1;exitDx=0;exitDy=0;entryX=0.5;entryY=0;entryDx=0;entryDy=0;" edge="1" parent="WIyWlLk6GJQsqaUBKTNV-1" source="Dg-iGA9xPcULfQSp999H-2" target="Dg-iGA9xPcULfQSp999H-3">
          <mxGeometry x="0.3333" y="20" relative="1" as="geometry">
            <mxPoint as="offset" />
            <mxPoint x="285" y="400" as="sourcePoint" />
            <mxPoint x="285" y="440" as="targetPoint" />
          </mxGeometry>
        </mxCell>
        <mxCell id="Dg-iGA9xPcULfQSp999H-5" value="쿠키매칭 AUID로&lt;br&gt;Mongo 모수 조회&lt;br&gt;( Inclination.load )" style="rounded=1;whiteSpace=wrap;html=1;fontSize=12;glass=0;strokeWidth=1;shadow=0;" vertex="1" parent="WIyWlLk6GJQsqaUBKTNV-1">
          <mxGeometry x="459" y="330" width="120" height="55" as="geometry" />
        </mxCell>
        <mxCell id="Dg-iGA9xPcULfQSp999H-6" value="" style="rounded=0;html=1;jettySize=auto;orthogonalLoop=1;fontSize=11;endArrow=block;endFill=0;endSize=8;strokeWidth=1;shadow=0;labelBackgroundColor=none;edgeStyle=orthogonalEdgeStyle;entryX=0.5;entryY=0;entryDx=0;entryDy=0;exitX=0.5;exitY=1;exitDx=0;exitDy=0;" edge="1" parent="WIyWlLk6GJQsqaUBKTNV-1" source="WIyWlLk6GJQsqaUBKTNV-7" target="Dg-iGA9xPcULfQSp999H-5">
          <mxGeometry y="20" relative="1" as="geometry">
            <mxPoint as="offset" />
            <mxPoint x="285.02857142857147" y="309.97992277992273" as="sourcePoint" />
            <mxPoint x="285" y="345" as="targetPoint" />
          </mxGeometry>
        </mxCell>
        <mxCell id="Dg-iGA9xPcULfQSp999H-7" value="" style="rounded=0;html=1;jettySize=auto;orthogonalLoop=1;fontSize=11;endArrow=block;endFill=0;endSize=8;strokeWidth=1;shadow=0;labelBackgroundColor=none;edgeStyle=orthogonalEdgeStyle;exitX=0.5;exitY=1;exitDx=0;exitDy=0;" edge="1" parent="WIyWlLk6GJQsqaUBKTNV-1" source="Dg-iGA9xPcULfQSp999H-5" target="Dg-iGA9xPcULfQSp999H-2">
          <mxGeometry y="20" relative="1" as="geometry">
            <mxPoint as="offset" />
            <mxPoint x="285.02857142857147" y="309.97992277992273" as="sourcePoint" />
            <mxPoint x="285" y="345" as="targetPoint" />
          </mxGeometry>
        </mxCell>
        <mxCell id="Dg-iGA9xPcULfQSp999H-8" value="Mongo에 변경사항 저장&lt;br&gt;( Inclination.save )" style="rounded=1;whiteSpace=wrap;html=1;fontSize=12;glass=0;strokeWidth=1;shadow=0;" vertex="1" parent="WIyWlLk6GJQsqaUBKTNV-1">
          <mxGeometry x="200.25" y="682" width="154.75" height="40" as="geometry" />
        </mxCell>
        <mxCell id="Dg-iGA9xPcULfQSp999H-9" value="" style="rounded=0;html=1;jettySize=auto;orthogonalLoop=1;fontSize=11;endArrow=block;endFill=0;endSize=8;strokeWidth=1;shadow=0;labelBackgroundColor=none;edgeStyle=orthogonalEdgeStyle;exitX=0.5;exitY=1;exitDx=0;exitDy=0;entryX=0.5;entryY=0;entryDx=0;entryDy=0;" edge="1" parent="WIyWlLk6GJQsqaUBKTNV-1" source="Dg-iGA9xPcULfQSp999H-3" target="Dg-iGA9xPcULfQSp999H-8">
          <mxGeometry x="0.3333" y="20" relative="1" as="geometry">
            <mxPoint as="offset" />
            <mxPoint x="285.25" y="584" as="sourcePoint" />
            <mxPoint x="285" y="618" as="targetPoint" />
          </mxGeometry>
        </mxCell>
        <mxCell id="Dg-iGA9xPcULfQSp999H-10" value="END" style="ellipse;whiteSpace=wrap;html=1;" vertex="1" parent="WIyWlLk6GJQsqaUBKTNV-1">
          <mxGeometry x="218" y="760" width="120" height="40" as="geometry" />
        </mxCell>
        <mxCell id="Dg-iGA9xPcULfQSp999H-12" value="Yes" style="rounded=0;html=1;jettySize=auto;orthogonalLoop=1;fontSize=11;endArrow=block;endFill=0;endSize=8;strokeWidth=1;shadow=0;labelBackgroundColor=none;edgeStyle=orthogonalEdgeStyle;exitX=0.5;exitY=1;exitDx=0;exitDy=0;entryX=0.5;entryY=0;entryDx=0;entryDy=0;" edge="1" parent="WIyWlLk6GJQsqaUBKTNV-1" source="Dg-iGA9xPcULfQSp999H-8" target="Dg-iGA9xPcULfQSp999H-10">
          <mxGeometry x="0.3333" y="20" relative="1" as="geometry">
            <mxPoint as="offset" />
            <mxPoint x="277.75" y="730" as="sourcePoint" />
            <mxPoint x="277.5" y="764" as="targetPoint" />
          </mxGeometry>
        </mxCell>
        <mxCell id="Dg-iGA9xPcULfQSp999H-13" value="&lt;i&gt;&lt;font color=&quot;#ff3333&quot;&gt;크롬 80 에 따른 au_id or s_au_id&lt;br&gt;조회 하도록 변경&lt;/font&gt;&lt;/i&gt;" style="shape=callout;whiteSpace=wrap;html=1;perimeter=calloutPerimeter;position2=1;" vertex="1" parent="WIyWlLk6GJQsqaUBKTNV-1">
          <mxGeometry y="130" width="200" height="90" as="geometry" />
        </mxCell>
        <mxCell id="Dg-iGA9xPcULfQSp999H-16" value="&lt;font color=&quot;#ff3333&quot;&gt;&lt;i&gt;Cookie AUID 와 CookieMatching AUID 가 다른 경우 개선 방안 필요&lt;/i&gt;&lt;/font&gt;" style="shape=callout;whiteSpace=wrap;html=1;perimeter=calloutPerimeter;position2=1;" vertex="1" parent="WIyWlLk6GJQsqaUBKTNV-1">
          <mxGeometry x="1.25" y="277" width="200" height="90" as="geometry" />
        </mxCell>
      </root>
    </mxGraphModel>
  </diagram>
</mxfile>
